{
  "accessors": [
    {
      "bufferView": 2,
      "componentType": 5126,
      "count": 5240,
      "max": [
        6.4068999290466309,
        6.4068999290466309,
        23.017599105834961
      ],
      "min": [
        -6.4068999290466309,
        -6.4068999290466309,
        0.030899999663233757
      ],
      "type": "VEC3"
    },
    {
      "bufferView": 2,
      "byteOffset": 62880,
      "componentType": 5126,
      "count": 5240,
      "max": [
        1,
        1,
        1
      ],
      "min": [
        -1,
        -1,
        -0.99899536371231079
      ],
      "type": "VEC3"
    },
    {
      "bufferView": 3,
      "componentType": 5126,
      "count": 5240,
      "max": [
        0.99992537498474121,
        0.99978452920913696,
        1,
        1
      ],
      "min": [
        -0.99978452920913696,
        -0.99978452920913696,
        -0.99976962804794312,
        -1
      ],
      "type": "VEC4"
    },
    {
      "bufferView": 1,
      "componentType": 5126,
      "count": 5240,
      "max": [
        0.99800002574920654,
        0.97909998893737793
      ],
      "min": [
        0.0020000000949949026,
        0.0020000000949949026
      ],
      "type": "VEC2"
    },
    {
      "bufferView": 0,
      "componentType": 5125,
      "count": 15504,
      "max": [
        5239
      ],
      "min": [
        0
      ],
      "type": "SCALAR"
    },
    {
      "bufferView": 2,
      "byteOffset": 125760,
      "componentType": 5126,
      "count": 13619,
      "max": [
        6.4068999290466309,
        6.4068999290466309,
        23.017599105834961
      ],
      "min": [
        -6.4068999290466309,
        -6.4068999290466309,
        0.030899999663233757
      ],
      "type": "VEC3"
    },
    {
      "bufferView": 2,
      "byteOffset": 289188,
      "componentType": 5126,
      "count": 13619,
      "max": [
        1,
        1,
        1
      ],
      "min": [
        -1,
        -1,
        -1
      ],
      "type": "VEC3"
    },
    {
      "bufferView": 3,
      "byteOffset": 83840,
      "componentType": 5126,
      "count": 13619,
      "max": [
        1,
        1,
        0.99993908405303955,
        1
      ],
      "min": [
        -1,
        -1,
        -0.99998641014099121,
        1
      ],
      "type": "VEC4"
    },
    {
      "bufferView": 1,
      "byteOffset": 41920,
      "componentType": 5126,
      "count": 13619,
      "max": [
        0.9968000054359436,
        0.98949998617172241
      ],
      "min": [
        0.0020000000949949026,
        0.0020000000949949026
      ],
      "type": "VEC2"
    },
    {
      "bufferView": 0,
      "byteOffset": 62016,
      "componentType": 5125,
      "count": 61860,
      "max": [
        13618
      ],
      "min": [
        0
      ],
      "type": "SCALAR"
    },
    {
      "bufferView": 2,
      "byteOffset": 452616,
      "componentType": 5126,
      "count": 208,
      "max": [
        5.3447999954223633,
        5.3352999687194824,
        23.017599105834961
      ],
      "min": [
        -5.3257999420166016,
        -5.3352999687194824,
        21.200199127197266
      ],
      "type": "VEC3"
    },
    {
      "bufferView": 2,
      "byteOffset": 455112,
      "componentType": 5126,
      "count": 208,
      "max": [
        0.98889750242233276,
        0.98889750242233276,
        1
      ],
      "min": [
        -0.98889750242233276,
        -0.98889750242233276,
        -0.46162378787994385
      ],
      "type": "VEC3"
    },
    {
      "bufferView": 3,
      "byteOffset": 301744,
      "componentType": 5126,
      "count": 208,
      "max": [
        0.92811077833175659,
        0.92509084939956665,
        0.98889672756195068,
        1
      ],
      "min": [
        -0.92509084939956665,
        -0.92509090900421143,
        0,
        1
      ],
      "type": "VEC4"
    },
    {
      "bufferView": 1,
      "byteOffset": 150872,
      "componentType": 5126,
      "count": 208,
      "max": [
        0.47979998588562012,
        0.85149997472763062
      ],
      "min": [
        0.22769999504089355,
        0.15850000083446503
      ],
      "type": "VEC2"
    },
    {
      "bufferView": 0,
      "byteOffset": 309456,
      "componentType": 5125,
      "count": 924,
      "max": [
        207
      ],
      "min": [
        0
      ],
      "type": "SCALAR"
    }
  ],
  "asset": {
    "extras": {
      "author": "Francesco Coldesina (https://sketchfab.com/topfrank2013)",
      "license": "CC-BY-4.0 (http://creativecommons.org/licenses/by/4.0/)",
      "source": "https://sketchfab.com/3d-models/chocolate-biscuits-in-glass-f7ba72403b6d4342a42b20907ed37dfb",
      "title": "Chocolate Biscuits in Glass"
    },
    "generator": "Sketchfab-6.17.1",
    "version": "2.0"
  },
  "bufferViews": [
    {
      "buffer": 0,
      "byteLength": 313152,
      "byteOffset": 0,
      "name": "floatBufferViews",
      "target": 34963
    },
    {
      "buffer": 0,
      "byteLength": 152536,
      "byteOffset": 313152,
      "byteStride": 8,
      "name": "floatBufferViews",
      "target": 34962
    },
    {
      "buffer": 0,
      "byteLength": 457608,
      "byteOffset": 465688,
      "byteStride": 12,
      "name": "floatBufferViews",
      "target": 34962
    },
    {
      "buffer": 0,
      "byteLength": 305072,
      "byteOffset": 923296,
      "byteStride": 16,
      "name": "floatBufferViews",
      "target": 34962
    }
  ],
  "buffers": [
    {
      "byteLength": 1228368,
      "uri": "scene.bin"
    }
  ],
  "extensionsRequired": [
    "KHR_materials_pbrSpecularGlossiness"
  ],
  "extensionsUsed": [
    "KHR_materials_pbrSpecularGlossiness"
  ],
  "images": [
    {
      "uri": "textures/Glass_diffuse.png"
    },
    {
      "uri": "textures/Glass_specularGlossiness.png"
    },
    {
      "uri": "textures/Glass_normal.png"
    },
    {
      "uri": "textures/Glass_occlusion.png"
    }
  ],
  "materials": [
    {
      "alphaMode": "BLEND",
      "doubleSided": true,
      "emissiveFactor": [
        0,
        0,
        0
      ],
      "extensions": {
        "KHR_materials_pbrSpecularGlossiness": {
          "diffuseFactor": [
            1,
            1,
            1,
            1
          ],
          "diffuseTexture": {
            "index": 0,
            "texCoord": 0
          },
          "glossinessFactor": 1,
          "specularFactor": [
            1,
            1,
            1
          ],
          "specularGlossinessTexture": {
            "index": 1,
            "texCoord": 0
          }
        }
      },
      "name": "Glass",
      "normalTexture": {
        "index": 2,
        "scale": 1,
        "texCoord": 0
      },
      "occlusionTexture": {
        "index": 3,
        "strength": 1,
        "texCoord": 0
      }
    }
  ],
  "meshes": [
    {
      "primitives": [
        {
          "attributes": {
            "NORMAL": 1,
            "POSITION": 0,
            "TANGENT": 2,
            "TEXCOORD_0": 3
          },
          "indices": 4,
          "material": 0,
          "mode": 4
        }
      ]
    },
    {
      "primitives": [
        {
          "attributes": {
            "NORMAL": 6,
            "POSITION": 5,
            "TANGENT": 7,
            "TEXCOORD_0": 8
          },
          "indices": 9,
          "material": 0,
          "mode": 4
        }
      ]
    },
    {
      "primitives": [
        {
          "attributes": {
            "NORMAL": 11,
            "POSITION": 10,
            "TANGENT": 12,
            "TEXCOORD_0": 13
          },
          "indices": 14,
          "material": 0,
          "mode": 4
        }
      ]
    }
  ],
  "nodes": [
    {
      "children": [
        1
      ],
      "name": "RootNode (gltf orientation matrix)",
      "rotation": [
        -0.70710678118654746,
        -0,
        -0,
        0.70710678118654757
      ]
    },
    {
      "children": [
        2
      ],
      "name": "RootNode (model correction matrix)"
    },
    {
      "children": [
        3,
        4,
        5
      ],
      "name": "Biscuit.obj.cleaner.materialmerger.gles"
    },
    {
      "mesh": 0,
      "name": ""
    },
    {
      "mesh": 1,
      "name": ""
    },
    {
      "mesh": 2,
      "name": ""
    }
  ],
  "samplers": [
    {
      "magFilter": 9729,
      "minFilter": 9987,
      "wrapS": 10497,
      "wrapT": 10497
    }
  ],
  "scene": 0,
  "scenes": [
    {
      "name": "OSG_Scene",
      "nodes": [
        0
      ]
    }
  ],
  "textures": [
    {
      "sampler": 0,
      "source": 0
    },
    {
      "sampler": 0,
      "source": 1
    },
    {
      "sampler": 0,
      "source": 2
    },
    {
      "sampler": 0,
      "source": 3
    }
  ]
}

