{
  "accessors": [
    {
      "bufferView": 2,
      "componentType": 5126,
      "count": 16020,
      "max": [
        10.049627304077148,
        0.89148318767547607,
        22.334604263305664
      ],
      "min": [
        -7.5204095840454102,
        0.074278920888900757,
        12.42389965057373
      ],
      "type": "VEC3"
    },
    {
      "bufferView": 2,
      "byteOffset": 192240,
      "componentType": 5126,
      "count": 16020,
      "max": [
        0.99999898672103882,
        1,
        0.99999600648880005
      ],
      "min": [
        -0.99995607137680054,
        -1,
        -1
      ],
      "type": "VEC3"
    },
    {
      "bufferView": 3,
      "componentType": 5126,
      "count": 16020,
      "max": [
        1,
        1,
        1,
        1
      ],
      "min": [
        -0.99971574544906616,
        -1,
        -1,
        -1
      ],
      "type": "VEC4"
    },
    {
      "bufferView": 1,
      "componentType": 5126,
      "count": 16020,
      "max": [
        1,
        0.99643856287002563
      ],
      "min": [
        0,
        0
      ],
      "type": "VEC2"
    },
    {
      "bufferView": 1,
      "byteOffset": 128160,
      "componentType": 5126,
      "count": 16020,
      "max": [
        1,
        0.99643856287002563
      ],
      "min": [
        0,
        0
      ],
      "type": "VEC2"
    },
    {
      "bufferView": 0,
      "componentType": 5125,
      "count": 85632,
      "max": [
        16019
      ],
      "min": [
        0
      ],
      "type": "SCALAR"
    }
  ],
  "asset": {
    "extras": {
      "author": "Cosche (https://sketchfab.com/Cosche)",
      "license": "CC-BY-SA-4.0 (http://creativecommons.org/licenses/by-sa/4.0/)",
      "source": "https://sketchfab.com/3d-models/salon-clippers-05a12bc9a23c4c7bb5a84601b61221ce",
      "title": "Salon Clippers"
    },
    "generator": "Sketchfab-8.25.0",
    "version": "2.0"
  },
  "bufferViews": [
    {
      "buffer": 0,
      "byteLength": 342528,
      "byteOffset": 0,
      "name": "floatBufferViews",
      "target": 34963
    },
    {
      "buffer": 0,
      "byteLength": 256320,
      "byteOffset": 342528,
      "byteStride": 8,
      "name": "floatBufferViews",
      "target": 34962
    },
    {
      "buffer": 0,
      "byteLength": 384480,
      "byteOffset": 598848,
      "byteStride": 12,
      "name": "floatBufferViews",
      "target": 34962
    },
    {
      "buffer": 0,
      "byteLength": 256320,
      "byteOffset": 983328,
      "byteStride": 16,
      "name": "floatBufferViews",
      "target": 34962
    }
  ],
  "buffers": [
    {
      "byteLength": 1239648,
      "uri": "scene.bin"
    }
  ],
  "images": [
    {
      "uri": "textures/mScissor_baseColor.png"
    },
    {
      "uri": "textures/mScissor_metallicRoughness.png"
    },
    {
      "uri": "textures/mScissor_normal.png"
    }
  ],
  "materials": [
    {
      "doubleSided": true,
      "emissiveFactor": [
        0,
        0,
        0
      ],
      "name": "mScissor",
      "normalTexture": {
        "index": 2,
        "scale": 1,
        "texCoord": 0
      },
      "pbrMetallicRoughness": {
        "baseColorFactor": [
          1,
          1,
          1,
          1
        ],
        "baseColorTexture": {
          "index": 0,
          "texCoord": 0
        },
        "metallicFactor": 1,
        "metallicRoughnessTexture": {
          "index": 1,
          "texCoord": 0
        },
        "roughnessFactor": 1
      }
    }
  ],
  "meshes": [
    {
      "name": "pCube15_mScissor_0",
      "primitives": [
        {
          "attributes": {
            "NORMAL": 1,
            "POSITION": 0,
            "TANGENT": 2,
            "TEXCOORD_0": 3,
            "TEXCOORD_1": 4
          },
          "indices": 5,
          "material": 0,
          "mode": 4
        }
      ]
    }
  ],
  "nodes": [
    {
      "children": [
        1
      ],
      "name": "RootNode (gltf orientation matrix)",
      "rotation": [
        -0.70710678118654746,
        -0,
        -0,
        0.70710678118654757
      ]
    },
    {
      "children": [
        2
      ],
      "name": "RootNode (model correction matrix)"
    },
    {
      "children": [
        3
      ],
      "matrix": [
        1,
        0,
        0,
        0,
        0,
        0,
        1,
        0,
        0,
        -1,
        0,
        0,
        0,
        0,
        0,
        1
      ],
      "name": "f80f6aa1bbc442a1844ee191c42dc3f2.fbx"
    },
    {
      "children": [
        4
      ],
      "name": "RootNode"
    },
    {
      "children": [
        5
      ],
      "matrix": [
        -0.054664436866459845,
        6.6944627635702636e-18,
        -0.12021348723685155,
        0,
        1.450612272714365e-18,
        0.13205863535404205,
        6.6944627635702636e-18,
        0,
        0.12021348723685155,
        1.450612272714365e-18,
        -0.054664436866459845,
        0,
        4.8266901969909668,
        8.1149883270263672,
        1.639769434928894,
        1
      ],
      "name": "pCube15"
    },
    {
      "mesh": 0,
      "name": "pCube15_mScissor_0"
    }
  ],
  "samplers": [
    {
      "magFilter": 9729,
      "minFilter": 9987,
      "wrapS": 10497,
      "wrapT": 10497
    }
  ],
  "scene": 0,
  "scenes": [
    {
      "name": "OSG_Scene",
      "nodes": [
        0
      ]
    }
  ],
  "textures": [
    {
      "sampler": 0,
      "source": 0
    },
    {
      "sampler": 0,
      "source": 1
    },
    {
      "sampler": 0,
      "source": 2
    }
  ]
}

